<svg xmlns="http://www.w3.org/2000/svg" xmlns:xlink="http://www.w3.org/1999/xlink" width="176" height="37" viewBox="0 0 176 37"><defs><path id="47y7a" d="M898.57 5715.005c.84-.784 1.522-1.156 2.001-.887.523.35-.258-1.28-1.838-1.423.523-.131 2.74-.131 4.09.06-.216-.406-3.097-1.056-6.384-.764-2.316.216-13.247 2.153-12.816 4.623.167.95 1.368 1.864 1.319 1.585-.243-1.367 6.82-4.234 12.304-5.286-3.891 4.483-12.874 14.123-18.952 15.22-2.568.456-3.444-.714-3.62-2.367-1.053-8.61 12.674-23.914 20.446-24.602 1.246-.112 2.621.333 2.843 1.56.43 2.428-3.123 5.718-5.135 5.897-.17.015.385-1.225.52-1.433-.785.43-1.61 1.616-1.506 2.257.075.418.923 1.137 1.575 1.076 3.065-.251 6.444-4.388 5.874-7.569-.366-2.036-2.776-2.475-4.165-2.35-9.782.867-24.912 15.39-22.953 25.846.484 2.546 2.503 3.999 5.307 3.581 4.767-.708 10.93-6.497 14.726-10.378-2.053 3.328-4.279 9.819-3.52 14.115.096.53.5.86.784.837.114-.01.132-.069.123-.125-.009-.056-.097-.047-.131-.243-.076-.418-.067-1.666.254-3.082.873-3.96 4.188-11.822 8.854-16.148z"/><path id="47y7b" d="M936.413 5709.12c.256-.503 1.353-1.764 1.801-2.001a.846.846 0 0 1 .59-.082c.114 0-.132-.413-.43-.67-.444-.385-1.167-.888-1.804-.746-.698.288-1.449 2.197-1.277 3.013.112.49.812 1.024 1.12.486z"/><path id="47y7c" d="M945.588 5712.443c-2.798 3.14-6.786 6.64-7.16 6.474-.253-.118 1.12-3.228 3.247-5.81 1.291-1.645 2.905-3.229 4.04-3.647a2.152 2.152 0 0 1 1.19-.105zm27.744-7.453c-2 2.983-6.498 9.22-8.727 11.233.047-.373.185-2.34.914-4.219.676-1.846 1.292-3.346 1.85-3.338.225-.021.275.088.288 0-.164-.75-1.436-1.743-2.112-1.655a.534.534 0 0 0-.338.2c-.484.536-.975 1.494-1.442 2.723-.276.101-.56.178-.85.23-1.119.185-1.913-.396-2.606-1.214a.988.988 0 0 0-.702-.215c-.363.063-1.065.975-1.1 1.261-.034.287.37 1.1.558 1.339-1.39 3.011-4.634 7.834-6.345 7.328-1.71-.505 2.531-10.455 7.662-10.911.198-.018.43.019.723.021.114-.01.198-.017.041-.088-.228-.15-.736-.418-1.812-.323-3.394.303-7.318 3.304-8.654 6.72-1.636 1.92-3.756 4.228-4.735 4.39.394-1.82 2.001-5.706 3.835-9.608 1.025-2.152 1.89-3.91 2.863-5.555.927-1.607 2.354-4.399 3.398-4.037.564.26-.86-1.257-2.43-1.031-.256.021-.585.277-.949.646-.581.622-1.214 1.586-1.89 2.752-1.054 1.993-2.395 4.464-3.674 7.298a1.853 1.853 0 0 0-1.332-.363c-1.7.15-3.467 1.214-5.395 2.832a13.727 13.727 0 0 0-2.695 3.084c-1.664 2.008-4.025 4.67-5.303 5.135.133-1.173 2.877-7.879 4.059-7.87.232 0 .398.135.379.023-.125-.697-1.46-1.721-2.11-1.655a.553.553 0 0 0-.395.216c-.838.86-2.097 3.105-3.037 5.262-1.651 1.958-3.747 4.25-5.002 4.664-.215-1.227 3.116-7.675 3.726-8.295.312-.34-.894-1.763-1.507-1.709-1.19.108-5.652 5.747-7.72 9.302-.177-.975 1.655-5.22 2.83-6.855.235-.303-.951-1.616-1.517-1.565a.323.323 0 0 0-.166.044c-1.145.355-6.293 6.34-7.681 8.871.456-1.145 2.296-5.021 3.269-6.495.288-.48.646-.795.84-.784.193.01.37.136.35.026-.125-.697-1.397-1.69-2.107-1.627a.502.502 0 0 0-.342.172c-.343.373-.647.78-.906 1.214a30.5 30.5 0 0 0-1.8 3.357c-1.646 1.993-4.435 5.306-5.929 5.889a2.68 2.68 0 0 1 .112-.975c.532-1.86 2.538-5.127 2.73-4.862.053-.344-1.187-1.793-1.703-1.463-.646.454-2.166 2.367-2.596 2.866-1.255 1.358-4.718 4.52-5.596 4.918a.235.235 0 0 1-.198.017c-.28-.116 1.216-3.82 3.504-6.319 1.567-1.698 3.426-3.054 5.056-3.284.84-.129 1.452.241 1.603 1.076.052.35.007.706-.131 1.031-.024.03.036.054.09.022a2.13 2.13 0 0 0 .304-1.36c-.237-1.311-1.722-1.632-2.811-1.537-5.215.465-10.59 7.261-10.045 10.303.1.557 1.027 1.551 1.582 1.758.083.027.17.041.256.043 1.19-.105 5.878-5.284 6.578-6.196-.53.99-.902 2.055-1.102 3.16a4.47 4.47 0 0 0-.043 1.052c.09.501.733 1.04 1.17 1.229.159.081.334.124.513.124 1.336-.12 3.96-3.277 5.99-6.026-.308.74-.59 1.479-.834 2.187-.505 1.347-.484 2.111-.393 2.3.368.762 1.259 1.56 2.074 1.292-.46-.16-.43-.73.216-1.722.154-.269.4-.658.787-1.233 1.66-2.47 3.825-5.327 6.384-7.283-1.595 1.87-3.056 6.082-2.867 7.14.099.56 1.166 1.372 1.562 1.337.795-.07 2.878-5.165 7.406-9.132-1.233 1.47-3.488 6.403-3.204 7.994.097.53 1.108 1.506 1.758 1.459 1.076-.097 3.05-2.23 4.851-4.505-.43 1.197-.682 2.217-.59 2.736.093.519.924 1.138 1.402 1.237.115.012.23.012.346 0 1.096-.187 2.972-2.234 4.71-4.431-.34.86-.492 1.62-.403 2.12.116.646 1.248 1.816 1.758 1.771 1.472-.131 6.351-6.005 7.204-6.874-.939 2.634-1.302 4.139-1.203 4.698.11.614.839 1.143 1.336 1.354.302.137.646.148.956.03.884-.374 2.643-2.443 4.18-4.433a5.583 5.583 0 0 0-.016 1.965 2.546 2.546 0 0 0 2.548 2.012c3.035-.1 8.179-4.638 8.282-8.415.287.06.581.072.872.036a5.531 5.531 0 0 0 1.506-.355c-.111.326-.222.664-.331 1.014-.753 2.436-.968 4.61-.773 5.753.041.215.861 1.059 1.414.98.879-.078 7.703-8.11 9.685-13.388.134-.323-.002-.282-.161-.04z"/><path id="47y7d" d="M982.765 5714.727c2.912.506 5.45 1.33 5.76 3.058.755 4.214-11.872 12.165-18.701 12.772-.908.081-2.387.185-2.583-.904-.37-2.064 5.723-8.87 12.875-11.545-3.672.241-15.281 8.047-14.547 12.175.394 2.204 3.209 2.493 5.081 2.327 7.736-.689 20.78-7.912 19.687-14.022-.553-3.097-4.053-3.833-7.41-4.414-3.003-.527-5.85-.982-6.138-2.6-.515-2.873 6.992-8.217 10.545-8.93.364-.06.728-.12 1.04-.148 1.076-.097 1.885.086 1.905.992.086 2.583-4.882 6.188-6.044 6.291-.17.013-.34.03-.37-.138a2.174 2.174 0 0 1 .336-1.506c-.506.385-1.397 1.683-1.193 2.828.11.613 1.001.76 1.567.71 3.013-.267 7.292-4.305 6.754-7.63-.357-2.152-2.195-2.61-4.759-2.296-4.115.506-12.599 5.058-11.76 9.745.446 2.456 4.389 2.617 7.955 3.235z"/><path id="47y7e" d="M1030.504 5708.955c.118.501.818 1.033 1.126.497.254-.506 1.353-1.765 1.799-2.004a.86.86 0 0 1 .592-.08c.112-.01-.134-.413-.43-.671-.444-.385-1.17-.887-1.804-.745-.704.289-1.457 2.198-1.283 3.003z"/><path id="47y7f" d="M1020.881 5714.544c-2.798 3.14-6.786 6.64-7.162 6.474-.252-.118 1.123-3.228 3.25-5.811 1.29-1.644 2.903-3.228 4.04-3.646a2.152 2.152 0 0 1 1.19-.105zm23.703-2.843c-1.117.185-1.913-.396-2.606-1.214a.975.975 0 0 0-.702-.215c-.364.06-1.063.973-1.1 1.259-.036.286.37 1.106.56 1.334-1.388 3.013-4.643 7.837-6.345 7.337s2.533-10.455 7.662-10.912c.198-.017.43.018.723.02.114 0 .2-.017.043-.088-.228-.149-.738-.416-1.814-.321-3.282.293-7.064 3.116-8.52 6.396-1.626 1.937-3.724 4.23-4.906 4.66.136-1.175 2.88-7.88 4.061-7.87.23 0 .398.133.38.02-.126-.697-1.46-1.721-2.112-1.652-.157.01-.3.089-.394.215-.745.745-1.823 2.613-2.714 4.528-1.66 2.004-4.408 5.187-5.56 5.38.395-1.82 2.002-5.705 3.838-9.609 1.023-2.152 1.89-3.908 2.863-5.553.92-1.603 2.35-4.4 3.392-4.044.566.26-.861-1.257-2.43-1.033-.254.024-.583.28-.95.646-.578.618-1.213 1.582-1.896 2.748-1.054 1.991-2.397 4.464-3.673 7.299a1.853 1.853 0 0 0-1.333-.364c-1.7.15-3.467 1.214-5.395 2.83a13.73 13.73 0 0 0-2.652 3.013c-1.644 1.978-3.975 4.632-5.296 5.166-.14-.782.555-2.857 1.635-4.852.717-1.308 1.33-2.384 1.675-2.869.299-.43.622-.705.822-.723.258 0 .37.136.349.024-.125-.697-1.397-1.69-2.077-1.63a.587.587 0 0 0-.373.177c-1.394 1.371-3.056 3.984-4.276 5.538-1.13 1.403-3.57 4.17-4.832 4.849-.144-.81.837-3.362 1.948-5.36.744-1.312 1.674-2.868 2.109-2.85.26 0 .398.135.379.023-.13-.726-1.43-1.722-2.11-1.655a.54.54 0 0 0-.367.202c-.61.622-1.559 2.066-2.306 3.521a25.78 25.78 0 0 0-.705 1.47c-1.755 2.118-4.477 5.34-5.48 5.314.361-1.845 1.853-5.577 3.659-9.47.837-1.745 1.524-3.228 2.341-4.601 4.608-1.117 9.79-1.606 15.496-1.63.345 0 .216-.05-.015-.084-4.203-.477-10.223-.17-14.747.459.962-1.7 2.236-4.09 3.229-3.743.594.258-.831-1.259-2.402-1.033-.256.022-.584.278-.95.646-.609.622-1.241 1.584-2.944 4.627-3.107.646-6.086 1.702-5.748 2.946.245.887 1.304 1.33 1.758 1.292-.811-.353.62-1.843 3.218-2.61-.822 1.476-1.425 2.767-1.987 3.985-2.535 5.609-3.32 8.467-3.17 9.293.008.15.064.295.16.412.323.43.74.78 1.22 1.024.286.156.629.168.925.032 1.052-.506 3.162-3.084 4.795-5.26-.527 1.436-.84 2.746-.712 3.444.118.67 1.132 1.345 1.586 1.304l.215-.022c1.642-.484 4.72-4.84 7.068-7.963a16.957 16.957 0 0 0-1.793 4.78 4.734 4.734 0 0 0-.097 1.227c.089.502.771 1.093 1.264 1.276a.829.829 0 0 0 .484.127c1.076-.096 3.026-2.204 4.804-4.461-.347.874-.502 1.638-.411 2.152.114.646 1.246 1.817 1.756 1.771 1.474-.131 6.353-6.004 7.206-6.874-.94 2.634-1.305 4.139-1.203 4.698.11.614.837 1.143 1.336 1.354.302.137.646.147.956.028.975-.413 3.013-2.892 4.649-5.051-.577 1.468-.941 2.77-.831 3.381.09.501.923 1.136 1.4 1.235.115.014.23.014.345 0 1.167-.198 3.229-2.51 5.052-4.864a5.643 5.643 0 0 0-.074 2.269 2.546 2.546 0 0 0 2.557 2.006c3.033-.1 8.179-4.638 8.282-8.416.283.06.574.071.86.035a5.4 5.4 0 0 0 1.628-.398c1.309-.57 2.277-1.593 2.35-1.995-.308 0-1.16 1.181-3.03 1.517z"/></defs><g><g transform="translate(-872 -5698)"><g><g><use fill="#ab7f42" xlink:href="#47y7a"/></g><g><use fill="#ab7f42" xlink:href="#47y7b"/></g><g><use fill="#ab7f42" xlink:href="#47y7c"/></g><g><use fill="#ab7f42" xlink:href="#47y7d"/></g><g><use fill="#ab7f42" xlink:href="#47y7e"/></g><g><use fill="#ab7f42" xlink:href="#47y7f"/></g></g></g></g></svg>