<svg xmlns="http://www.w3.org/2000/svg" xmlns:xlink="http://www.w3.org/1999/xlink" width="60" height="60" viewBox="0 0 60 60"><defs><path id="f653a" d="M366.67 1609.07c-.02-.79.24-1.56.73-2.17l13.31-16.66a3.33 3.33 0 1 1 5.21 4.17l-11.64 14.57 11.64 14.58a3.34 3.34 0 0 1-5.2 4.17l-13.32-16.66a3.34 3.34 0 0 1-.73-2zm-16.67 0c-.02-.79.24-1.56.73-2.17l13.31-16.66a3.33 3.33 0 1 1 5.22 4.17l-11.65 14.57 11.65 14.58a3.34 3.34 0 0 1-5.22 4.17l-13.31-16.66a3.34 3.34 0 0 1-.73-2zm-10-.07c0 16.55 13.45 30 30 30s30-13.45 30-30-13.45-30-30-30-30 13.45-30 30z"/></defs><g><g opacity=".4" transform="translate(-340 -1579)"><use fill="#ab7f42" xlink:href="#f653a"/></g></g></svg>