<svg xmlns="http://www.w3.org/2000/svg" xmlns:xlink="http://www.w3.org/1999/xlink" width="21" height="21" viewBox="0 0 21 21"><defs><path id="yf3va" d="M617.57 993.41c.57 0 1.04-.47 1.04-1.04v-4.95c0-.57-.47-1.04-1.04-1.04h-4.94a1.05 1.05 0 0 0 0 2.09h2.4L608.5 995l-6.52-6.52h2.41a1.05 1.05 0 0 0 0-2.09h-4.96c-.58 0-1.05.47-1.05 1.05v4.94a1.05 1.05 0 0 0 2.09 0v-2.4l6.54 6.51-6.52 6.52v-2.38a1.05 1.05 0 0 0-2.09 0v4.94c0 .57.47 1.04 1.05 1.04h4.94a1.05 1.05 0 0 0 0-2.09h-2.4l6.51-6.54 6.52 6.52h-2.38a1.05 1.05 0 0 0 0 2.1h4.94c.57 0 1.04-.48 1.04-1.05v-4.92a1.05 1.05 0 0 0-2.08 0v2.4l-6.55-6.54 6.52-6.52v2.4c0 .56.47 1.03 1.07 1.03z"/></defs><g><g transform="translate(-598 -986)"><use fill="#fff" xlink:href="#yf3va"/></g></g></svg>